<?xml version="1.0" encoding="UTF-8" standalone="no"?>
<svg
   xmlns:dc="http://purl.org/dc/elements/1.1/"
   xmlns:cc="http://creativecommons.org/ns#"
   xmlns:rdf="http://www.w3.org/1999/02/22-rdf-syntax-ns#"
   xmlns:svg="http://www.w3.org/2000/svg"
   xmlns="http://www.w3.org/2000/svg"
   xmlns:sodipodi="http://sodipodi.sourceforge.net/DTD/sodipodi-0.dtd"
   xmlns:inkscape="http://www.inkscape.org/namespaces/inkscape"
   version="1.1"
   id="svg2"
   xml:space="preserve"
   width="305.216"
   height="210.55232"
   viewBox="0 0 305.21601 210.55232"
   sodipodi:docname="logo.svg"
   inkscape:version="1.0beta2 (3a9ee21, 2020-03-24)"><metadata
     id="metadata8"><rdf:RDF><cc:Work
         rdf:about=""><dc:format>image/svg+xml</dc:format><dc:type
           rdf:resource="http://purl.org/dc/dcmitype/StillImage" /><dc:title></dc:title></cc:Work></rdf:RDF></metadata><defs
     id="defs6" /><sodipodi:namedview
     inkscape:document-rotation="0"
     pagecolor="#ffffff"
     bordercolor="#666666"
     borderopacity="1"
     objecttolerance="10"
     gridtolerance="10"
     guidetolerance="10"
     inkscape:pageopacity="0"
     inkscape:pageshadow="2"
     inkscape:window-width="2400"
     inkscape:window-height="1272"
     id="namedview4"
     showgrid="false"
     fit-margin-top="0"
     fit-margin-left="0"
     fit-margin-right="0"
     fit-margin-bottom="0"
     inkscape:snap-object-midpoints="true"
     inkscape:zoom="0.74586435"
     inkscape:cx="-312.24624"
     inkscape:cy="-192.08466"
     inkscape:window-x="4792"
     inkscape:window-y="1038"
     inkscape:window-maximized="1"
     inkscape:current-layer="g10" /><g
     id="g10"
     inkscape:groupmode="layer"
     inkscape:label="ink_ext_XXXXXX"
     transform="matrix(1.3333333,0,0,-1.3333333,-589.72665,295.23599)"><path
       inkscape:connector-curvature="0"
       id="path180"
       style="fill:#2a394c;fill-opacity:1;fill-rule:nonzero;stroke:none;stroke-width:0.1"
       d="m 621.848,89.882 c -36.278,-35.159 -93.918,-35.159 -130.196,0 0,37.574 0,75.148 0,112.722 5.543,0 23.796,18.823 28.033,18.823 24.711,0 49.419,0 74.13,0 4.242,0 22.49,-18.823 28.033,-18.823 0,-37.574 0,-75.148 0,-112.722" /><path
       inkscape:connector-curvature="0"
       id="path182"
       style="fill:#e56f19;fill-opacity:1;fill-rule:nonzero;stroke:none;stroke-width:0.1"
       d="m 628.886,123.501 c -0.3,-3.202 -0.596,-6.407 -0.897,-9.611 4.522,2.813 9.094,5.579 13.718,8.308 -4.273,0.471 -8.545,0.905 -12.821,1.303" /><path
       inkscape:connector-curvature="0"
       id="path184"
       style="fill:#e56f19;fill-opacity:1;fill-rule:nonzero;stroke:none;stroke-width:0.1"
       d="m 485.501,113.89 c -0.3,3.204 -0.598,6.407 -0.895,9.611 -4.275,-0.398 -8.544,-0.832 -12.813,-1.303 4.62,-2.729 9.189,-5.497 13.708,-8.308" /><path
       inkscape:connector-curvature="0"
       id="path186"
       style="fill:#4fa2aa;fill-opacity:1;fill-rule:nonzero;stroke:none;stroke-width:0.1"
       d="m 483.599,134.311 c 0.336,-3.605 0.671,-7.207 1.007,-10.81 47.988,4.47 96.29,4.47 144.28,0 0.335,3.603 0.671,7.207 1.006,10.812 -48.66,4.531 -97.635,4.531 -146.293,-0.002" /><path
       inkscape:connector-curvature="0"
       id="path188"
       style="fill:#ae2d00;fill-opacity:1;fill-rule:nonzero;stroke:none;stroke-width:0.1"
       d="m 671.207,153.299 c -75.922,10.808 -152.992,10.808 -228.912,0 5.202,-6.701 10.29,-13.452 15.269,-20.252 -3.13,-7.819 -6.144,-15.655 -9.041,-23.507 12.297,1.75 24.628,3.2 36.978,4.35 -4.519,2.811 -9.088,5.579 -13.708,8.308 4.269,0.471 8.538,0.905 12.813,1.303 -0.336,3.603 -0.671,7.205 -1.007,10.81 48.658,4.533 97.633,4.533 146.293,0.002 -0.335,-3.605 -0.671,-7.209 -1.006,-10.812 4.276,-0.398 8.548,-0.832 12.821,-1.303 -4.624,-2.729 -9.196,-5.495 -13.718,-8.308 12.355,-1.148 24.688,-2.6 36.99,-4.35 -2.899,7.852 -5.911,15.688 -9.041,23.507 4.979,6.8 10.069,13.551 15.269,20.252" /><path
       inkscape:connector-curvature="0"
       id="path190"
       style="fill:#ca562e;fill-opacity:1;fill-rule:nonzero;stroke:none;stroke-width:0.1"
       d="m 641.707,122.198 c -56.469,6.206 -113.445,6.206 -169.914,0 -1.608,14.644 -3.216,29.289 -4.826,43.932 59.677,6.557 119.891,6.557 179.566,0 -1.608,-14.643 -3.218,-29.288 -4.826,-43.932" /><path
       inkscape:connector-curvature="0"
       id="path192"
       style="fill:#ffffff;fill-opacity:1;fill-rule:nonzero;stroke:none;stroke-width:0.1"
       d="m 556.752,76.0711 c -19.427,0 -37.893,6.8371 -52.542,19.3527 v 99.3192 c 3.21,2.151 6.77,5.004 11.042,8.484 2.186,1.783 5.26,4.286 7.162,5.643 h 68.674 c 1.902,-1.357 4.975,-3.86 7.165,-5.643 4.269,-3.48 7.829,-6.333 11.039,-8.484 V 95.4238 C 594.641,82.9082 576.175,76.0711 556.752,76.0711" /><path
       inkscape:connector-curvature="0"
       id="path194"
       style="fill:#32435b;fill-opacity:1;fill-rule:nonzero;stroke:none;stroke-width:0.1"
       d="m 556.752,79.2102 c -18.047,0 -35.532,6.2679 -49.403,17.6769 v 96.2069 c 3.006,2.126 6.28,4.762 9.885,7.7 1.785,1.456 4.363,3.554 6.208,4.937 h 66.62 c 1.844,-1.383 4.417,-3.481 6.207,-4.935 3.604,-2.94 6.876,-5.576 9.882,-7.702 V 96.8871 C 592.281,85.4781 574.798,79.2102 556.752,79.2102" /><g
       style="font-style:normal;font-variant:normal;font-weight:normal;font-stretch:normal;font-size:122.877px;line-height:1.25;font-family:Algerian;-inkscape-font-specification:'Algerian Normal';font-variant-ligatures:normal;font-variant-caps:normal;font-variant-numeric:normal;font-variant-east-asian:normal;letter-spacing:0px;word-spacing:0px;fill:#ffffff;fill-opacity:1;stroke:none;stroke-width:3.07193"
       id="text1151"
       transform="scale(1,-1)"
       aria-label="F"><path
         id="path840"
         style="font-style:normal;font-variant:normal;font-weight:normal;font-stretch:normal;font-size:122.877px;font-family:Algerian;-inkscape-font-specification:'Algerian Normal';font-variant-ligatures:normal;font-variant-caps:normal;font-variant-numeric:normal;font-variant-east-asian:normal;fill:#ffffff;fill-opacity:1;stroke-width:3.07193"
         d="m 525.22076,-183.4196 h 62.27848 q -3.71991,4.91988 -5.33987,7.73981 -1.55996,2.81993 -4.0199,9.05978 l -0.47999,1.19997 q -3.9599,-8.1598 -7.8598,-10.55974 -3.83991,-2.39994 -13.01969,-2.39994 l -3.41991,0.06 -5.81986,-0.06 -2.21995,-0.06 v 28.07931 h 3.65991 v -24.77939 l 1.73996,-0.06 q 3.71991,-0.17999 7.91981,-0.17999 12.2397,0 15.29962,6.35984 -2.93992,-2.81993 -6.41984,-3.77991 -3.41991,-1.01997 -10.61974,-1.01997 -2.57994,0 -6.41984,0.29999 v 23.15943 h 9.05978 l 9.59976,-10.13975 v 25.13939 l -10.07975,-9.95976 h -13.73967 v 30.23926 l 7.67982,7.79981 h -29.45928 l 9.77976,-7.79981 v -25.79937 q -4.61989,0 -8.09981,3.47992 l -1.13997,-1.25997 q 3.47992,-3.83991 9.23978,-3.83991 v -2.81993 q -1.25997,-0.12 -1.79996,-0.12 -5.57986,0 -9.65976,4.55989 l -0.41999,-0.95997 q 2.69993,-7.79981 11.87971,-8.5198 v -25.31938 z m 66.83837,3.65991 q -8.57979,10.01976 -10.79973,18.35955 l -1.25997,-0.83998 q 2.27994,-9.41977 10.97973,-18.53954 z m -18.53955,21.35948 v 25.91937 l -1.55996,-0.89998 v -25.91937 z m -10.73973,18.11956 h -12.2997 v 25.67937 l 10.55974,13.07968 h -34.73915 l -1.49997,-1.61996 h 32.8792 l -8.69979,-10.73974 v -28.01931 h 12.05971 z" /></g></g></svg>
